<svg width="34" height="28" viewBox="0 0 34 28" fill="none" xmlns="http://www.w3.org/2000/svg">
<path fill-rule="evenodd" clip-rule="evenodd" d="M15.5832 17.7435C16.329 16.9468 17.0906 16.1138 17.8595 15.2518C18.7746 14.2259 19.6487 13.2168 20.471 12.2397C28.7947 18.9919 34.3653 25.4112 33.0701 26.8596C31.7759 28.3067 24.0933 24.2691 15.5832 17.7435ZM12.5449 15.3338C4.49498 8.73021 -0.831646 2.53488 0.437909 1.11528C1.70774 -0.304618 9.12741 3.55556 17.4446 9.86514C16.5677 10.7934 15.6664 11.7748 14.7547 12.7968C13.9871 13.6572 13.2484 14.5059 12.5449 15.3338ZM12.5449 15.3338C13.1143 15.8009 13.6974 16.27 14.2927 16.7396C14.7245 17.0803 15.1549 17.4151 15.5832 17.7435C10.3477 23.3365 5.89116 27.1355 5.14069 26.5421C4.39004 25.9485 7.59617 21.1572 12.5449 15.3338ZM17.4446 9.86514C22.4996 4.51418 26.7429 0.928803 27.4735 1.50652C28.2036 2.08386 25.1903 6.63262 20.471 12.2397C20.0591 11.9055 19.6403 11.5705 19.2153 11.2352C18.6219 10.767 18.031 10.31 17.4446 9.86514Z" fill="#1B1818"/>
</svg>
