<svg width="450" height="90" viewBox="0 0 450 90" fill="none" xmlns="http://www.w3.org/2000/svg">
<circle cx="45.2499" cy="45" r="36.5" fill="white"/>
<circle cx="45.5672" cy="45.3174" r="31.7391" fill="black"/>
<path fill-rule="evenodd" clip-rule="evenodd" d="M65.4082 67.534C71.1655 62.1821 74.7672 54.5428 74.7672 46.0622C74.7672 29.8748 61.6447 16.7522 45.4572 16.7522C36.9758 16.7522 29.3357 20.3547 23.9838 26.113C29.2158 21.2493 36.2279 18.2748 43.9348 18.2748C60.1222 18.2748 73.2447 31.3973 73.2447 47.5848C73.2447 55.2908 70.2709 62.3022 65.4082 67.534Z" fill="white"/>
<path fill-rule="evenodd" clip-rule="evenodd" d="M44.9655 48.9389C45.6431 48.17 46.3322 47.3689 47.0264 46.5415C47.8649 45.5423 48.667 44.5569 49.4245 43.5986C57.7946 50.8201 63.4793 57.5476 62.3047 58.9474C61.1306 60.3466 53.5255 55.9217 44.9655 48.9389ZM41.6259 46.1231C33.5264 39.0651 28.0867 32.5736 29.2382 31.2013C30.3902 29.8284 37.7348 34.0634 46.0975 40.8203C45.2874 41.7304 44.4587 42.6888 43.6225 43.6853C42.9306 44.5099 42.2635 45.3249 41.6259 46.1231ZM41.6259 46.1231C42.2447 46.6624 42.8791 47.205 43.5272 47.7489C44.009 48.1531 44.4888 48.55 44.9655 48.9389C39.7045 54.9097 35.1404 58.9415 34.3076 58.2428C33.4746 57.5437 36.6557 52.3446 41.6259 46.1231ZM46.0975 40.8203C51.1822 35.1082 55.5305 31.3038 56.3413 31.9841C57.1517 32.6641 54.1632 37.6028 49.4245 43.5986C48.9628 43.2003 48.4929 42.8004 48.0156 42.3999C47.3719 41.8598 46.7318 41.3328 46.0975 40.8203Z" fill="white"/>
<path d="M121.855 64.38H115.095V34.87L96.1149 60.74V64.38H89.3549V20.635H96.1149V50.015L115.095 24.145V20.635H121.855V64.38ZM166.705 64.38H159.945V44.49H138.95V64.38H132.255V20.635H138.95V38.055H159.945V20.635H166.705V64.38ZM215.455 42.215C215.455 46.895 213.57 50.6867 209.8 53.59C206.593 56.1467 202.628 57.7067 197.905 58.27V64.38H191.34V58.27C186.573 57.6633 182.63 56.125 179.51 53.655C175.783 50.7083 173.92 46.895 173.92 42.215C173.92 37.535 175.783 33.7217 179.51 30.775C182.673 28.2617 186.617 26.7017 191.34 26.095V20.635H197.905V26.03C202.628 26.6367 206.593 28.1967 209.8 30.71C213.57 33.7 215.455 37.535 215.455 42.215ZM208.76 42.215C208.76 39.485 207.677 37.1667 205.51 35.26C203.473 33.6567 200.938 32.6817 197.905 32.335V51.9C201.112 51.4233 203.647 50.4267 205.51 48.91C207.677 47.22 208.76 44.9883 208.76 42.215ZM191.34 32.335C188.177 32.8117 185.663 33.83 183.8 35.39C181.59 37.1667 180.485 39.4417 180.485 42.215C180.485 44.9883 181.59 47.22 183.8 48.91C185.663 50.4267 188.177 51.4233 191.34 51.9V32.335ZM254.031 42.54C254.031 37.73 252.84 33.8083 250.456 30.775C247.9 27.4383 244.39 25.77 239.926 25.77C235.463 25.77 231.953 27.4383 229.396 30.775C226.97 33.8517 225.756 37.7733 225.756 42.54C225.756 47.3067 226.97 51.2283 229.396 54.305C231.91 57.555 235.42 59.18 239.926 59.18C244.39 59.18 247.9 57.555 250.456 54.305C252.84 51.2717 254.031 47.35 254.031 42.54ZM260.726 42.54C260.726 48.8667 258.906 54.175 255.266 58.465C251.366 63.1017 246.253 65.42 239.926 65.42C233.513 65.42 228.4 63.1233 224.586 58.53C221.033 54.2833 219.256 48.9533 219.256 42.54C219.256 36.1267 221.011 30.775 224.521 26.485C228.378 21.8483 233.513 19.53 239.926 19.53C246.253 19.53 251.366 21.87 255.266 26.55C258.906 30.9267 260.726 36.2567 260.726 42.54Z" fill="#231F1F"/>
<path d="M266.75 0.25L267.25 89.75" stroke="black"/>
<path d="M283.278 63.5C281.078 63.5 279.161 63.0833 277.528 62.25C275.928 61.4167 274.678 60.2167 273.778 58.65C272.911 57.05 272.478 55.1667 272.478 53V36.5C272.478 34.3 272.911 32.4167 273.778 30.85C274.678 29.2833 275.928 28.0833 277.528 27.25C279.161 26.4167 281.078 26 283.278 26C285.478 26 287.378 26.4333 288.978 27.3C290.578 28.1333 291.811 29.3333 292.678 30.9C293.545 32.4667 293.978 34.3333 293.978 36.5H289.478C289.478 34.4333 288.928 32.85 287.828 31.75C286.761 30.6167 285.245 30.05 283.278 30.05C281.311 30.05 279.761 30.6 278.628 31.7C277.528 32.8 276.978 34.3833 276.978 36.45V53C276.978 55.0667 277.528 56.6667 278.628 57.8C279.761 58.9 281.311 59.45 283.278 59.45C285.245 59.45 286.761 58.9 287.828 57.8C288.928 56.6667 289.478 55.0667 289.478 53H293.978C293.978 55.1333 293.545 57 292.678 58.6C291.811 60.1667 290.578 61.3833 288.978 62.25C287.378 63.0833 285.478 63.5 283.278 63.5ZM328.559 63V30.55H318.559V26.45H343.059V30.55H333.059V63H328.559ZM368.039 63V26.5H372.389V47C372.389 48.2 372.356 49.4833 372.289 50.85C372.256 52.1833 372.206 53.4667 372.139 54.7C372.072 55.9 372.006 56.9167 371.939 57.75L383.039 26.5H389.039V63H384.689V42.5C384.689 41.2667 384.706 39.9833 384.739 38.65C384.806 37.2833 384.872 36 384.939 34.8C385.039 33.5667 385.122 32.55 385.189 31.75L374.039 63H368.039ZM412.52 70V59.15H414.77C415.136 58.4833 415.52 57.5833 415.92 56.45C416.32 55.3167 416.67 54.0333 416.97 52.6C417.27 51.1667 417.436 49.6667 417.47 48.1L417.82 26.5H436.52V59.15H440.02V70H436.02V63H416.52V70H412.52ZM419.47 59.15H432.02V30.5H422.12L421.87 48.1C421.836 50.6667 421.553 52.9333 421.02 54.9C420.486 56.8667 419.97 58.2833 419.47 59.15Z" fill="#231F1F"/>
</svg>
