<svg width="433" height="90" viewBox="0 0 433 90" fill="none" xmlns="http://www.w3.org/2000/svg">
<circle cx="36.5" cy="45" r="36.5" fill="white"/>
<circle cx="36.8173" cy="45.3174" r="31.7391" fill="black"/>
<path fill-rule="evenodd" clip-rule="evenodd" d="M56.6583 67.534C62.4155 62.1821 66.0173 54.5428 66.0173 46.0622C66.0173 29.8747 52.8947 16.7522 36.7073 16.7522C28.2258 16.7522 20.5858 20.3547 15.2338 26.1129C20.4658 21.2493 27.478 18.2748 35.1848 18.2748C51.3723 18.2748 64.4948 31.3973 64.4948 47.5847C64.4948 55.2908 61.521 62.3022 56.6583 67.534Z" fill="white"/>
<path fill-rule="evenodd" clip-rule="evenodd" d="M36.2156 48.9389C36.8932 48.1699 37.5823 47.3688 38.2765 46.5415C39.115 45.5422 39.9171 44.5569 40.6745 43.5985C49.0447 50.8201 54.7293 57.5475 53.5547 58.9474C52.3807 60.3465 44.7755 55.9217 36.2156 48.9389ZM32.8759 46.1231C24.7765 39.0651 19.3368 32.5735 20.4882 31.2013C21.6403 29.8283 28.9849 34.0633 37.3476 40.8203C36.5375 41.7303 35.7087 42.6888 34.8726 43.6853C34.1807 44.5098 33.5136 45.3249 32.8759 46.1231ZM32.8759 46.1231C33.4948 46.6624 34.1292 47.205 34.7773 47.7488C35.2591 48.1531 35.7388 48.5499 36.2156 48.9389C30.9545 54.9096 26.3904 58.9414 25.5577 58.2427C24.7246 57.5437 27.9058 52.3446 32.8759 46.1231ZM37.3476 40.8203C42.4323 35.1081 46.7806 31.3037 47.5913 31.984C48.4018 32.6641 45.4133 37.6028 40.6745 43.5985C40.2128 43.2002 39.743 42.8004 39.2656 42.3998C38.6219 41.8597 37.9818 41.3327 37.3476 40.8203Z" fill="white"/>
<path d="M113.105 64.38H106.345V34.87L87.365 60.74V64.38H80.605V20.635H87.365V50.015L106.345 24.145V20.635H113.105V64.38ZM157.955 64.38H151.195V44.49H130.2V64.38H123.505V20.635H130.2V38.055H151.195V20.635H157.955V64.38ZM206.705 42.215C206.705 46.895 204.82 50.6867 201.05 53.59C197.843 56.1467 193.878 57.7067 189.155 58.27V64.38H182.59V58.27C177.823 57.6633 173.88 56.125 170.76 53.655C167.033 50.7083 165.17 46.895 165.17 42.215C165.17 37.535 167.033 33.7217 170.76 30.775C173.923 28.2617 177.867 26.7017 182.59 26.095V20.635H189.155V26.03C193.878 26.6367 197.843 28.1967 201.05 30.71C204.82 33.7 206.705 37.535 206.705 42.215ZM200.01 42.215C200.01 39.485 198.927 37.1667 196.76 35.26C194.723 33.6567 192.188 32.6817 189.155 32.335V51.9C192.362 51.4233 194.897 50.4267 196.76 48.91C198.927 47.22 200.01 44.9883 200.01 42.215ZM182.59 32.335C179.427 32.8117 176.913 33.83 175.05 35.39C172.84 37.1667 171.735 39.4417 171.735 42.215C171.735 44.9883 172.84 47.22 175.05 48.91C176.913 50.4267 179.427 51.4233 182.59 51.9V32.335ZM245.281 42.54C245.281 37.73 244.09 33.8083 241.706 30.775C239.15 27.4383 235.64 25.77 231.176 25.77C226.713 25.77 223.203 27.4383 220.646 30.775C218.22 33.8517 217.006 37.7733 217.006 42.54C217.006 47.3067 218.22 51.2283 220.646 54.305C223.16 57.555 226.67 59.18 231.176 59.18C235.64 59.18 239.15 57.555 241.706 54.305C244.09 51.2717 245.281 47.35 245.281 42.54ZM251.976 42.54C251.976 48.8667 250.156 54.175 246.516 58.465C242.616 63.1017 237.503 65.42 231.176 65.42C224.763 65.42 219.65 63.1233 215.836 58.53C212.283 54.2833 210.506 48.9533 210.506 42.54C210.506 36.1267 212.261 30.775 215.771 26.485C219.628 21.8483 224.763 19.53 231.176 19.53C237.503 19.53 242.616 21.87 246.516 26.55C250.156 30.9267 251.976 36.2567 251.976 42.54Z" fill="white"/>
<path d="M258 0.25L258.5 89.75" stroke="white"/>
<path d="M274.528 63.5C272.328 63.5 270.412 63.0833 268.778 62.25C267.178 61.4167 265.928 60.2167 265.028 58.65C264.162 57.05 263.728 55.1667 263.728 53V36.5C263.728 34.3 264.162 32.4167 265.028 30.85C265.928 29.2833 267.178 28.0833 268.778 27.25C270.412 26.4167 272.328 26 274.528 26C276.728 26 278.628 26.4333 280.228 27.3C281.828 28.1333 283.062 29.3333 283.928 30.9C284.795 32.4667 285.228 34.3333 285.228 36.5H280.728C280.728 34.4333 280.178 32.85 279.078 31.75C278.012 30.6167 276.495 30.05 274.528 30.05C272.562 30.05 271.012 30.6 269.878 31.7C268.778 32.8 268.228 34.3833 268.228 36.45V53C268.228 55.0667 268.778 56.6667 269.878 57.8C271.012 58.9 272.562 59.45 274.528 59.45C276.495 59.45 278.012 58.9 279.078 57.8C280.178 56.6667 280.728 55.0667 280.728 53H285.228C285.228 55.1333 284.795 57 283.928 58.6C283.062 60.1667 281.828 61.3833 280.228 62.25C278.628 63.0833 276.728 63.5 274.528 63.5ZM319.809 63V30.55H309.809V26.45H334.309V30.55H324.309V63H319.809ZM359.289 63V26.5H363.639V47C363.639 48.2 363.606 49.4833 363.539 50.85C363.506 52.1833 363.456 53.4667 363.389 54.7C363.322 55.9 363.256 56.9167 363.189 57.75L374.289 26.5H380.289V63H375.939V42.5C375.939 41.2667 375.956 39.9833 375.989 38.65C376.056 37.2833 376.122 36 376.189 34.8C376.289 33.5667 376.372 32.55 376.439 31.75L365.289 63H359.289ZM403.77 70V59.15H406.02C406.386 58.4833 406.77 57.5833 407.17 56.45C407.57 55.3167 407.92 54.0333 408.22 52.6C408.52 51.1667 408.686 49.6667 408.72 48.1L409.07 26.5H427.77V59.15H431.27V70H427.27V63H407.77V70H403.77ZM410.72 59.15H423.27V30.5H413.37L413.12 48.1C413.086 50.6667 412.803 52.9333 412.27 54.9C411.736 56.8667 411.22 58.2833 410.72 59.15Z" fill="white"/>
</svg>
