<svg width="74" height="74" viewBox="0 0 74 74" fill="none" xmlns="http://www.w3.org/2000/svg">
<circle cx="37.2499" cy="37" r="36.5" fill="white"/>
<circle cx="37.5672" cy="37.3174" r="31.7391" fill="black"/>
<path fill-rule="evenodd" clip-rule="evenodd" d="M57.4082 59.534C63.1655 54.1821 66.7672 46.5428 66.7672 38.0622C66.7672 21.8748 53.6447 8.75224 37.4572 8.75224C28.9758 8.75224 21.3357 12.3547 15.9838 18.113C21.2158 13.2493 28.2279 10.2748 35.9348 10.2748C52.1222 10.2748 65.2447 23.3973 65.2447 39.5848C65.2447 47.2908 62.2709 54.3022 57.4082 59.534Z" fill="white"/>
<path fill-rule="evenodd" clip-rule="evenodd" d="M36.9655 40.9389C37.6431 40.17 38.3322 39.3689 39.0264 38.5415C39.8649 37.5423 40.667 36.5569 41.4245 35.5986C49.7946 42.8201 55.4793 49.5476 54.3047 50.9474C53.1306 52.3466 45.5255 47.9217 36.9655 40.9389ZM33.6259 38.1231C25.5264 31.0651 20.0867 24.5736 21.2382 23.2013C22.3902 21.8284 29.7348 26.0634 38.0975 32.8203C37.2874 33.7304 36.4587 34.6888 35.6225 35.6853C34.9306 36.5099 34.2635 37.3249 33.6259 38.1231ZM33.6259 38.1231C34.2447 38.6624 34.8791 39.205 35.5272 39.7489C36.009 40.1531 36.4888 40.55 36.9655 40.9389C31.7045 46.9097 27.1404 50.9415 26.3076 50.2428C25.4746 49.5437 28.6557 44.3446 33.6259 38.1231ZM38.0975 32.8203C43.1822 27.1082 47.5305 23.3038 48.3413 23.9841C49.1517 24.6641 46.1632 29.6028 41.4245 35.5986C40.9628 35.2003 40.4929 34.8004 40.0156 34.3999C39.3719 33.8598 38.7318 33.3328 38.0975 32.8203Z" fill="white"/>
</svg>
