<svg width="53" height="54" viewBox="0 0 53 54" fill="none" xmlns="http://www.w3.org/2000/svg">
<path fill-rule="evenodd" clip-rule="evenodd" d="M30.7097 27.4914C35.8278 20.7999 35.3268 11.1889 29.2069 5.06897C22.5414 -1.59654 11.7345 -1.59654 5.06897 5.06897C-1.59656 11.7345 -1.59656 22.5414 5.06897 29.2069C10.9078 35.0458 19.9246 35.7699 26.5516 31.3793L48.5172 53.3448L52.5402 49.3218L30.7097 27.4914ZM26.7931 7.48276C32.1255 12.8152 32.1255 21.4607 26.7931 26.7931C21.4607 32.1255 12.8152 32.1255 7.48279 26.7931C2.15039 21.4607 2.15039 12.8152 7.48279 7.48276C12.8152 2.15035 21.4607 2.15035 26.7931 7.48276ZM17.6985 17.297C17.6985 17.7525 17.693 18.1982 17.6825 18.6303C17.4231 18.6339 17.1604 18.6357 16.8953 18.6357C16.5383 18.6357 16.1863 18.6324 15.8401 18.626C15.8297 18.1952 15.8243 17.751 15.8243 17.297C15.8243 16.7483 15.8323 16.214 15.8472 15.7003C16.191 15.6939 16.5408 15.6907 16.8953 15.6907C17.158 15.6907 17.4182 15.6925 17.6754 15.696C17.6904 16.211 17.6985 16.7468 17.6985 17.297ZM17.6754 15.696C17.5809 12.474 17.2075 10.0681 16.7614 10.0681C16.3149 10.0681 15.9414 12.4762 15.8472 15.7003C11.3134 15.7844 7.79224 16.4073 7.79224 17.1632C7.79224 17.9187 11.3097 18.5414 15.8401 18.626C15.921 21.9836 16.3027 24.5258 16.7614 24.5258C17.2198 24.5258 17.6014 21.9858 17.6825 18.6303C22.3413 18.5657 25.9982 17.9336 25.9982 17.1632C25.9982 16.3925 22.3376 15.76 17.6754 15.696Z" fill="#231F1F"/>
</svg>
